<svg width="51" height="51" viewBox="0 0 51 51" fill="none" xmlns="http://www.w3.org/2000/svg">
<path fill-rule="evenodd" clip-rule="evenodd" d="M25.5001 0.291672C11.5782 0.291672 0.291748 11.5781 0.291748 25.5C0.291748 39.4219 11.5782 50.7083 25.5001 50.7083C39.422 50.7083 50.7084 39.4219 50.7084 25.5C50.7084 11.5781 39.422 0.291672 25.5001 0.291672ZM33.9953 20.2452C34.4127 19.813 34.6437 19.2341 34.6385 18.6333C34.6333 18.0324 34.3923 17.4576 33.9674 17.0327C33.5425 16.6078 32.9677 16.3668 32.3668 16.3616C31.766 16.3564 31.1871 16.5874 30.7549 17.0048L25.5001 22.2596L20.2453 17.0048C20.0339 16.7859 19.781 16.6113 19.5014 16.4912C19.2218 16.3711 18.9211 16.3079 18.6168 16.3053C18.3125 16.3026 18.0108 16.3606 17.7291 16.4758C17.4475 16.5911 17.1916 16.7612 16.9765 16.9764C16.7613 17.1916 16.5911 17.4474 16.4759 17.7291C16.3607 18.0107 16.3027 18.3125 16.3053 18.6168C16.308 18.921 16.3712 19.2218 16.4913 19.5013C16.6114 19.7809 16.786 20.0338 17.0049 20.2452L22.2597 25.5L17.0049 30.7548C16.786 30.9662 16.6114 31.2191 16.4913 31.4987C16.3712 31.7783 16.308 32.079 16.3053 32.3833C16.3027 32.6875 16.3607 32.9893 16.4759 33.2709C16.5911 33.5526 16.7613 33.8084 16.9765 34.0236C17.1916 34.2388 17.4475 34.409 17.7291 34.5242C18.0108 34.6394 18.3125 34.6974 18.6168 34.6947C18.9211 34.6921 19.2218 34.6289 19.5014 34.5088C19.781 34.3887 20.0339 34.2141 20.2453 33.9952L25.5001 28.7404L30.7549 33.9952C31.1871 34.4127 31.766 34.6436 32.3668 34.6384C32.9677 34.6332 33.5425 34.3922 33.9674 33.9673C34.3923 33.5424 34.6333 32.9676 34.6385 32.3668C34.6437 31.7659 34.4127 31.187 33.9953 30.7548L28.7405 25.5L33.9953 20.2452Z" fill="white"/>
</svg>
