<svg width="56" height="56" viewBox="0 0 56 56" fill="none" xmlns="http://www.w3.org/2000/svg">
<path d="M50.4766 15.5094C49.7435 13.8121 48.6866 12.274 47.3648 10.9812C46.0421 9.68462 44.4826 8.65422 42.7711 7.94607C40.9964 7.20885 39.0929 6.83149 37.1711 6.83591C34.475 6.83591 31.8445 7.5742 29.5586 8.96873C29.0117 9.30232 28.4922 9.66873 28 10.0679C27.5078 9.66873 26.9883 9.30232 26.4414 8.96873C24.1555 7.5742 21.525 6.83591 18.8289 6.83591C16.8875 6.83591 15.0062 7.20779 13.2289 7.94607C11.5117 8.65701 9.96406 9.67967 8.63516 10.9812C7.3117 12.2725 6.25449 13.811 5.52344 15.5094C4.76328 17.2758 4.375 19.1515 4.375 21.082C4.375 22.9031 4.74688 24.8008 5.48516 26.7312C6.10313 28.3445 6.98906 30.0179 8.12109 31.7078C9.91484 34.382 12.3812 37.1711 15.4437 39.9984C20.5187 44.6851 25.5445 47.9226 25.7578 48.0539L27.0539 48.8851C27.6281 49.2515 28.3664 49.2515 28.9406 48.8851L30.2367 48.0539C30.45 47.9172 35.4703 44.6851 40.5508 39.9984C43.6133 37.1711 46.0797 34.382 47.8734 31.7078C49.0055 30.0179 49.8969 28.3445 50.5094 26.7312C51.2477 24.8008 51.6195 22.9031 51.6195 21.082C51.625 19.1515 51.2367 17.2758 50.4766 15.5094Z" fill="white"/>
</svg>
