<svg width="77" height="77" viewBox="0 0 77 77" fill="none" xmlns="http://www.w3.org/2000/svg">
<path fill-rule="evenodd" clip-rule="evenodd" d="M32.5262 5.82312C33.9632 5.39203 35.4811 5.30285 36.9588 5.5627C38.4364 5.82255 39.8329 6.42424 41.0366 7.31974C42.2404 8.21524 43.2181 9.37974 43.8918 10.7203C44.5655 12.0609 44.9165 13.5403 44.9167 15.0407V61.9593C44.9165 63.4596 44.5655 64.9391 43.8918 66.2797C43.2181 67.6202 42.2404 68.7847 41.0366 69.6802C39.8329 70.5757 38.4364 71.1774 36.9588 71.4373C35.4811 71.6971 33.9632 71.608 32.5262 71.1769L13.2762 65.4019C11.2937 64.8072 9.55581 63.5893 8.32019 61.9289C7.08458 60.2685 6.41709 58.254 6.41675 56.1843V20.8157C6.41709 18.746 7.08458 16.7315 8.32019 15.0711C9.55581 13.4107 11.2937 12.1928 13.2762 11.5981L32.5262 5.82312ZM48.1251 12.8333C48.1251 11.9824 48.4631 11.1664 49.0648 10.5647C49.6665 9.96301 50.4825 9.62499 51.3334 9.62499H60.9584C63.5111 9.62499 65.9593 10.6391 67.7643 12.4441C69.5694 14.2491 70.5834 16.6973 70.5834 19.25V22.4583C70.5834 23.3092 70.2454 24.1253 69.6437 24.727C69.042 25.3286 68.226 25.6667 67.3751 25.6667C66.5242 25.6667 65.7081 25.3286 65.1064 24.727C64.5048 24.1253 64.1667 23.3092 64.1667 22.4583V19.25C64.1667 18.3991 63.8287 17.583 63.2271 16.9814C62.6254 16.3797 61.8093 16.0417 60.9584 16.0417H51.3334C50.4825 16.0417 49.6665 15.7036 49.0648 15.102C48.4631 14.5003 48.1251 13.6842 48.1251 12.8333ZM67.3751 51.3333C68.226 51.3333 69.042 51.6713 69.6437 52.273C70.2454 52.8747 70.5834 53.6908 70.5834 54.5417V57.75C70.5834 60.3027 69.5694 62.7509 67.7643 64.5559C65.9593 66.3609 63.5111 67.375 60.9584 67.375H51.3334C50.4825 67.375 49.6665 67.037 49.0648 66.4353C48.4631 65.8336 48.1251 65.0176 48.1251 64.1667C48.1251 63.3158 48.4631 62.4997 49.0648 61.898C49.6665 61.2963 50.4825 60.9583 51.3334 60.9583H60.9584C61.8093 60.9583 62.6254 60.6203 63.2271 60.0186C63.8287 59.417 64.1667 58.6009 64.1667 57.75V54.5417C64.1667 53.6908 64.5048 52.8747 65.1064 52.273C65.7081 51.6713 66.5242 51.3333 67.3751 51.3333ZM28.8751 35.2917C28.0242 35.2917 27.2081 35.6297 26.6064 36.2314C26.0048 36.833 25.6667 37.6491 25.6667 38.5C25.6667 39.3509 26.0048 40.1669 26.6064 40.7686C27.2081 41.3703 28.0242 41.7083 28.8751 41.7083H28.8783C29.7292 41.7083 30.5452 41.3703 31.1469 40.7686C31.7486 40.1669 32.0866 39.3509 32.0866 38.5C32.0866 37.6491 31.7486 36.833 31.1469 36.2314C30.5452 35.6297 29.7292 35.2917 28.8783 35.2917H28.8751Z" fill="white"/>
<path d="M51.3335 38.5H67.3752M67.3752 38.5L60.9585 32.0833M67.3752 38.5L60.9585 44.9166" stroke="white" stroke-width="2" stroke-linecap="round" stroke-linejoin="round"/>
</svg>
