<svg width="94" height="60" viewBox="0 0 94 60" fill="none" xmlns="http://www.w3.org/2000/svg">
<path d="M27.3523 0.81818H39.5114V41.3864C39.5114 45.1364 38.6686 48.3939 36.983 51.1591C35.3163 53.9242 32.9962 56.0549 30.0227 57.5511C27.0492 59.0473 23.5928 59.7955 19.6534 59.7955C16.1496 59.7955 12.9678 59.1799 10.108 57.9489C7.26705 56.6989 5.01326 54.8049 3.34659 52.267C1.67992 49.7102 0.856061 46.5 0.875 42.6364H13.1193C13.1572 44.1705 13.4697 45.4867 14.0568 46.5852C14.6629 47.6648 15.4867 48.4981 16.5284 49.0852C17.589 49.6534 18.839 49.9375 20.2784 49.9375C21.7936 49.9375 23.072 49.6155 24.1136 48.9716C25.1742 48.3087 25.9792 47.3428 26.5284 46.0739C27.0777 44.8049 27.3523 43.2424 27.3523 41.3864V0.81818ZM81.2443 17.5511C81.017 15.2595 80.0417 13.4792 78.3182 12.2102C76.5947 10.9413 74.2557 10.3068 71.3011 10.3068C69.2936 10.3068 67.5985 10.5909 66.2159 11.1591C64.8333 11.7083 63.7727 12.4754 63.0341 13.4602C62.3144 14.4451 61.9545 15.5625 61.9545 16.8125C61.9167 17.8542 62.1345 18.7633 62.608 19.5398C63.1004 20.3163 63.7727 20.9886 64.625 21.5568C65.4773 22.1061 66.4621 22.589 67.5795 23.0057C68.697 23.4034 69.8902 23.7443 71.1591 24.0284L76.3864 25.2784C78.9242 25.8466 81.2538 26.6042 83.375 27.5511C85.4962 28.4981 87.3333 29.6629 88.8864 31.0455C90.4394 32.428 91.642 34.0568 92.4943 35.9318C93.3655 37.8068 93.8106 39.9564 93.8295 42.3807C93.8106 45.9413 92.9015 49.0284 91.1023 51.642C89.322 54.2367 86.7462 56.2538 83.375 57.6932C80.0227 59.1136 75.9792 59.8239 71.2443 59.8239C66.5473 59.8239 62.4564 59.1042 58.9716 57.6648C55.5057 56.2254 52.7973 54.0947 50.8466 51.2727C48.9148 48.4318 47.9015 44.9186 47.8068 40.733H59.7102C59.8428 42.6837 60.4015 44.3125 61.3864 45.6193C62.3902 46.9072 63.7254 47.8826 65.392 48.5455C67.0777 49.1894 68.9811 49.5114 71.1023 49.5114C73.1856 49.5114 74.9943 49.2083 76.5284 48.6023C78.0814 47.9962 79.2841 47.1534 80.1364 46.0739C80.9886 44.9943 81.4148 43.7538 81.4148 42.3523C81.4148 41.0455 81.0265 39.947 80.25 39.0568C79.4924 38.1667 78.375 37.4091 76.8977 36.7841C75.4394 36.1591 73.6496 35.5909 71.5284 35.0795L65.1932 33.4886C60.2879 32.2955 56.4148 30.4299 53.5739 27.892C50.733 25.3542 49.322 21.9356 49.3409 17.6364C49.322 14.1136 50.2595 11.036 52.1534 8.40341C54.0663 5.77083 56.6894 3.71591 60.0227 2.23864C63.3561 0.761362 67.1439 0.0227251 71.3864 0.0227251C75.7045 0.0227251 79.4735 0.761362 82.6932 2.23864C85.9318 3.71591 88.4508 5.77083 90.25 8.40341C92.0492 11.036 92.9773 14.0852 93.0341 17.5511H81.2443Z" fill="white"/>
</svg>
